<?xml version="1.0" standalone="yes"?>
<svg xmlns="http://www.w3.org/2000/svg" width="512" height="512">
<path style="fill:#009f3c; stroke:none;" d="M0 0L0 512L512 512L512 0L0 0z"/>
<path style="fill:#ffffff; stroke:none;" d="M57 138L57 373L455 373L455 138L57 138z"/>
<path style="fill:#dbf1e3; stroke:none;" d="M110 187C116.436 189.701 126.049 188 133 188L182 188L354 188C347.564 185.299 337.951 187 331 187L282 187L110 187z"/>
<path style="fill:#bce6cc; stroke:none;" d="M109 188L109 206C110.952 201.349 110.952 192.651 109 188z"/>
<path style="fill:#27ae5a; stroke:none;" d="M110 188C116.436 190.701 126.049 189 133 189L182 189L354 189C347.564 186.299 337.951 188 331 188L282 188L110 188z"/>
<path style="fill:#bce6cc; stroke:none;" d="M354 188L354 206C355.952 201.349 355.952 192.651 354 188z"/>
<path style="fill:#009f3c; stroke:none;" d="M110 189L110 205L353 205C353 199.6 352.742 194.282 354 189L110 189z"/>
<path style="fill:#17a84e; stroke:none;" d="M353 190L353 205L110 205C116.436 207.701 126.049 206 133 206L182 206L354 206C354 200.91 354.982 194.724 353 190z"/>
<path style="fill:#dcf2e4; stroke:none;" d="M110 206C116.436 208.701 126.049 207 133 207L182 207L354 207C347.564 204.299 337.951 206 331 206L282 206L110 206z"/>
<path style="fill:#a7debc; stroke:none;" d="M108 243C113.462 245.292 121.113 244 127 244L166 244L303 244C297.538 241.708 289.887 243 284 243L245 243L108 243z"/>
<path style="fill:#91d6ab; stroke:none;" d="M107 244L107 262C108.952 257.349 108.952 248.651 107 244z"/>
<path style="fill:#009f3c; stroke:none;" d="M108 244L108 261L303 261C301.669 255.408 302 249.717 302 244L108 244z"/>
<path style="fill:#23ac57; stroke:none;" d="M302 244L302 260C303.812 255.681 303.812 248.319 302 244z"/>
<path style="fill:#edf8f1; stroke:none;" d="M303 244L303 262C304.952 257.349 304.952 248.651 303 244z"/>
<path style="fill:#5ac181; stroke:none;" d="M108 261C113.462 263.292 121.113 262 127 262L166 262L303 262C297.538 259.708 289.887 261 284 261L245 261L108 261z"/>
<path style="fill:#f1faf4; stroke:none;" d="M106 297C112.436 299.701 122.049 298 129 298L178 298L351 298C344.564 295.299 334.951 297 328 297L279 297L106 297z"/>
<path style="fill:#5ac181; stroke:none;" d="M106 298L106 316C107.952 311.349 107.952 302.651 106 298z"/>
<path style="fill:#21ab55; stroke:none;" d="M107 298C113.436 300.701 123.049 299 130 299L179 299L350 299C343.564 296.299 333.951 298 327 298L278 298L107 298z"/>
<path style="fill:#4fbd78; stroke:none;" d="M350 298L350 316C351.952 311.349 351.952 302.651 350 298z"/>
<path style="fill:#009f3c; stroke:none;" d="M107 299L107 315L350 315L350 299L107 299z"/>
<path style="fill:#14a74b; stroke:none;" d="M107 315C113.436 317.701 123.049 316 130 316L179 316L350 316C343.564 313.299 333.951 315 327 315L278 315L107 315z"/>
<path style="fill:#d4efde; stroke:none;" d="M106 316C112.436 318.701 122.049 317 129 317L178 317L351 317C344.564 314.299 334.951 316 328 316L279 316L106 316z"/>
</svg>
